# xmcd
#
# Track frame offsets:
#	150
#	17115
#	31612
#	47922
#	62827
#	76482
#	91260
#	105460
#	119882
#	133562
#
# Disc length: 2016 seconds
#
# Revision: 0
# Processed by: cddbd v1.5.1PL0 Copyright (c) Steve Scherf et al.
# Submitted via: MusicManager 7.0.6.0 
#
DISCID=7f07de0a
DTITLE=Grant Lyle - Brotherhood
DYEAR=1998
DGENRE=blues
TTITLE0=Just A Stranger
TTITLE1=Walkin' Away
TTITLE2=Ain't Nobody's Business
TTITLE3=Shufflin
TTITLE4=Miss You So
TTITLE5=Make It Allright
TTITLE6=All Your Love
TTITLE7=Cryin'  Wolf
TTITLE8=Can't Be Satisfied
TTITLE9=Reflection
EXTD=
EXTT0=
EXTT1=
EXTT2=
EXTT3=
EXTT4=
EXTT5=
EXTT6=
EXTT7=
EXTT8=
EXTT9=
PLAYORDER=
